<svg id="svg" version="1.1" xmlns="http://www.w3.org/2000/svg" xmlns:xlink="http://www.w3.org/1999/xlink" width="400" height="143" viewBox="0, 0, 400,142.41803278688525"><g id="svgg"><path id="path0" d="M55.205 1.661 C 35.324 20.953,16.574 46.754,7.792 66.906 C -8.805 104.989,1.736 136.437,32.821 141.578 C 55.326 145.300,85.376 137.977,131.151 117.616 C 137.963 114.587,179.494 96.742,304.988 42.925 C 357.265 20.506,399.945 2.133,399.832 2.096 C 399.686 2.047,116.930 77.450,108.299 79.839 C 95.892 83.273,80.030 83.949,69.818 81.477 C 51.668 77.085,42.008 63.423,42.008 42.144 C 42.008 34.196,46.272 21.580,54.293 5.794 C 55.875 2.681,57.126 0.091,57.073 0.038 C 57.020 -0.015,56.179 0.715,55.205 1.661 " stroke="none" fill="#000000" fill-rule="evenodd"></path></g></svg>